<svg width="40" height="40" viewBox="0 0 40 40" fill="none" xmlns="http://www.w3.org/2000/svg">
<g clip-path="url(#clip0_20_8832)">
<path d="M68.5669 10.0501C68.5669 11.4917 67.4054 12.6525 65.9638 12.6525C64.5222 12.6525 63.3615 11.4917 63.3615 10.0501C63.3615 8.60855 64.4826 7.44776 65.9638 7.44776C67.4462 7.48776 68.5669 8.64894 68.5669 10.0501ZM57.836 15.2956V15.9364C57.836 15.9364 56.5952 14.334 53.9524 14.334C49.5885 14.334 46.1846 17.6576 46.1846 22.2619C46.1846 26.8266 49.5485 30.1897 53.9524 30.1897C56.6352 30.1897 57.836 28.5481 57.836 28.5481V29.2285C57.836 29.5489 58.0768 29.7885 58.3968 29.7885H61.6395V14.7332H58.3968C58.0768 14.7344 57.836 15.0152 57.836 15.2956ZM57.836 24.9446C57.236 25.8258 56.0344 26.5866 54.5932 26.5866C52.0309 26.5866 50.0685 24.985 50.0685 22.2619C50.0685 19.5391 52.0309 17.9376 54.5932 17.9376C55.9948 17.9376 57.276 18.7383 57.836 19.5791V24.9446ZM64.0422 14.7344H67.8858V29.7897H64.0422V14.7344ZM121.459 14.3336C118.816 14.3336 117.575 15.936 117.575 15.936V7.48776H113.731V29.7897H116.975C117.295 29.7897 117.535 29.5093 117.535 29.2289V28.5485C117.535 28.5485 118.776 30.1901 121.418 30.1901C125.783 30.1901 129.186 26.8278 129.186 22.2631C129.186 17.6984 125.783 14.3336 121.459 14.3336ZM120.818 26.5462C119.336 26.5462 118.176 25.7862 117.575 24.9046V19.5391C118.176 18.7383 119.457 17.8976 120.818 17.8976C123.381 17.8976 125.343 19.4991 125.343 22.2219C125.343 24.9446 123.381 26.5462 120.818 26.5462ZM111.73 20.8611V29.8297H107.885V21.3011C107.885 18.8191 107.085 17.8176 104.924 17.8176C103.763 17.8176 102.561 18.4183 101.799 19.2995V29.7901H97.9568V14.7348H100.999C101.319 14.7348 101.559 15.0152 101.559 15.2956V15.9364C102.681 14.7748 104.162 14.334 105.643 14.334C107.325 14.334 108.727 14.8152 109.848 15.776C111.209 16.8972 111.73 18.3384 111.73 20.8611ZM88.6262 14.3336C85.9842 14.3336 84.7426 15.936 84.7426 15.936V7.48776H80.8991V29.7897H84.1418C84.4622 29.7897 84.7026 29.5093 84.7026 29.2289V28.5485C84.7026 28.5485 85.9442 30.1901 88.5861 30.1901C92.9509 30.1901 96.354 26.8278 96.354 22.2631C96.394 17.698 92.9909 14.3336 88.6262 14.3336ZM87.9854 26.5462C86.5042 26.5462 85.3434 25.7862 84.7426 24.9046V19.5391C85.3434 18.7383 86.6246 17.8976 87.9854 17.8976C90.5485 17.8976 92.5101 19.4991 92.5101 22.2219C92.5101 24.9446 90.5485 26.5462 87.9854 26.5462ZM77.5756 14.3336C78.7364 14.3336 79.3371 14.5344 79.3371 14.5344V18.0975C79.3371 18.0975 76.134 17.0164 74.1325 19.2991V29.8293H70.2881V14.7344H73.5317C73.8521 14.7344 74.0916 15.0148 74.0916 15.2952V15.936C74.8132 15.0948 76.3748 14.3336 77.5756 14.3336ZM37.6568 28.4282C37.4568 27.9478 37.2564 27.4274 37.0564 26.9866C36.7356 26.2662 36.4152 25.585 36.1356 24.9446L36.0956 24.9046C33.3325 18.8983 30.3701 12.8129 27.2466 6.80738L27.1266 6.56658C26.798 5.94358 26.4779 5.31621 26.1662 4.68462C25.7654 3.96344 25.3654 3.20345 24.7246 2.48226C23.4434 0.880694 21.6015 -0.000488281 19.6399 -0.000488281C17.6376 -0.000488281 15.836 0.880699 14.5152 2.40187C13.9144 3.12225 13.4737 3.88304 13.0737 4.60423C12.7612 5.23542 12.441 5.86278 12.1133 6.48619L11.9929 6.72698C8.90974 12.7325 5.907 18.8183 3.14425 24.8242L3.10386 24.9038C2.82387 25.5454 2.50307 26.2258 2.18268 26.9458C1.98268 27.3866 1.78269 27.867 1.58269 28.3873C1.0619 29.8685 0.901495 31.2701 1.10229 32.7121C1.54268 35.7152 3.54424 38.2368 6.30739 39.3587C7.34857 39.7995 8.42975 39.9995 9.55052 39.9995C9.87092 39.9995 10.2709 39.9595 10.5917 39.9191C11.9133 39.7591 13.2745 39.3191 14.596 38.5583C16.2376 37.6372 17.7992 36.3164 19.5607 34.3944C21.3223 36.3164 22.9239 37.6372 24.5254 38.5583C25.8474 39.3191 27.2082 39.7591 28.5293 39.9191C28.8497 39.9599 29.2505 39.9995 29.5709 39.9995C30.6921 39.9995 31.8129 39.7995 32.8137 39.3587C35.6168 38.2368 37.5784 35.6752 38.0192 32.7121C38.3372 31.3109 38.1772 29.9101 37.6568 28.4282ZM19.5995 30.5101C17.4372 27.7874 16.0356 25.225 15.5556 23.0635C15.3556 22.1423 15.3152 21.3415 15.4356 20.6207C15.5152 19.9799 15.756 19.4191 16.0764 18.9387C16.8372 17.8584 18.1184 17.1772 19.5999 17.1772C21.0819 17.1772 22.4031 17.818 23.1239 18.9387C23.4443 19.4191 23.6842 19.9803 23.765 20.6207C23.8846 21.3419 23.8446 22.1823 23.6447 23.0635C23.1627 25.185 21.7611 27.7478 19.5995 30.5101ZM35.5744 32.3921C35.2944 34.474 33.8928 36.2764 31.9313 37.0772C30.9705 37.4772 29.9289 37.5976 28.8885 37.4772C27.8878 37.3568 26.8862 37.0364 25.8458 36.4364C24.4042 35.6348 22.9631 34.3944 21.2811 32.5521C23.9234 29.3093 25.525 26.3458 26.1258 23.7038C26.4062 22.4623 26.4466 21.3415 26.3258 20.2999C26.1662 19.2991 25.8054 18.3779 25.245 17.5772C24.003 15.7748 21.9207 14.7344 19.5991 14.7344C17.2776 14.7344 15.1952 15.8156 13.954 17.5772C13.3936 18.3779 13.0329 19.2991 12.8729 20.2999C12.7129 21.3415 12.7525 22.5023 13.0729 23.7038C13.6732 26.3458 15.3148 29.3489 17.9172 32.5921C16.2756 34.434 14.794 35.6756 13.3524 36.4764C12.3113 37.0772 11.3109 37.3976 10.3101 37.5172C9.22934 37.6376 8.18776 37.4772 7.26697 37.1172C5.30541 36.3164 3.90384 34.514 3.62385 32.4321C3.50385 31.4313 3.58345 30.4305 3.98424 29.3093C4.10384 28.9085 4.30463 28.5086 4.50463 28.0282C4.78502 27.3874 5.10462 26.7062 5.42541 26.0258L5.46581 25.9462C8.22816 19.9799 11.1909 13.894 14.274 7.96855L14.394 7.72776C14.7148 7.12777 15.0352 6.48699 15.3552 5.8862C15.6756 5.24541 16.0356 4.64462 16.4764 4.12383C17.3172 3.16385 18.4379 2.64266 19.6795 2.64266C20.9211 2.64266 22.0419 3.16385 22.8827 4.12383C23.3235 4.64582 23.6834 5.24661 24.0038 5.8862C24.3246 6.48699 24.645 7.12777 24.9646 7.72776L25.085 7.96855C28.1211 13.9187 31.0445 19.9256 33.8536 25.9862V26.0262C34.1744 26.6678 34.4544 27.3878 34.7748 28.0294C34.9748 28.5089 35.1752 28.9089 35.2952 29.3097C35.6148 30.3497 35.7348 31.3513 35.5744 32.3921Z" fill="#FF5A5F"/>
</g>
<defs>
<clipPath id="clip0_20_8832">
<rect width="40" height="40" fill="white"/>
</clipPath>
</defs>
</svg>
